<mxfile host="app.diagrams.net" modified="2023-11-22T19:09:49.124Z" agent="Mozilla/5.0 (Macintosh; Intel Mac OS X 10_15_7) AppleWebKit/605.1.15 (KHTML, like Gecko) Version/17.0 Safari/605.1.15" etag="V8i9UiJdT9oihKATW3lz" version="22.1.3" type="device">
  <diagram name="Page-1" id="5f0bae14-7c28-e335-631c-24af17079c00">
    <mxGraphModel dx="2773" dy="8" grid="1" gridSize="10" guides="1" tooltips="1" connect="1" arrows="1" fold="1" page="1" pageScale="1" pageWidth="1100" pageHeight="850" background="none" math="0" shadow="0">
      <root>
        <mxCell id="0" />
        <mxCell id="1" parent="0" />
        <mxCell id="CpLRXVsHM8t-solivWQ3-35" value="myapplication" style="verticalAlign=top;align=left;spacingTop=8;spacingLeft=2;spacingRight=12;shape=cube;size=10;direction=south;fontStyle=4;html=1;rounded=0;shadow=0;comic=0;labelBackgroundColor=none;strokeWidth=1;fontFamily=Verdana;fontSize=12;" vertex="1" parent="1">
          <mxGeometry x="-300" y="1350" width="1440" height="960" as="geometry" />
        </mxCell>
        <mxCell id="CpLRXVsHM8t-solivWQ3-75" value="" style="shape=folder;fontStyle=1;spacingTop=10;tabWidth=40;tabHeight=14;tabPosition=left;html=1;whiteSpace=wrap;" vertex="1" parent="1">
          <mxGeometry x="510" y="1410" width="500" height="780" as="geometry" />
        </mxCell>
        <mxCell id="CpLRXVsHM8t-solivWQ3-73" value="" style="shape=folder;fontStyle=1;spacingTop=10;tabWidth=40;tabHeight=14;tabPosition=left;html=1;whiteSpace=wrap;" vertex="1" parent="1">
          <mxGeometry x="-180" y="1410" width="503.75" height="790" as="geometry" />
        </mxCell>
        <mxCell id="CpLRXVsHM8t-solivWQ3-79" style="edgeStyle=orthogonalEdgeStyle;rounded=0;orthogonalLoop=1;jettySize=auto;html=1;exitX=0.5;exitY=1;exitDx=0;exitDy=0;entryX=0;entryY=0.3;entryDx=0;entryDy=0;" edge="1" parent="1" source="CpLRXVsHM8t-solivWQ3-37" target="CpLRXVsHM8t-solivWQ3-42">
          <mxGeometry relative="1" as="geometry">
            <Array as="points">
              <mxPoint x="84" y="1570" />
              <mxPoint x="650" y="1570" />
              <mxPoint x="650" y="1601" />
            </Array>
          </mxGeometry>
        </mxCell>
        <mxCell id="CpLRXVsHM8t-solivWQ3-37" value="&lt;div style=&quot;text-align: start; background-color: rgb(255, 255, 255); font-family: Menlo, Monaco, &amp;quot;Courier New&amp;quot;, monospace; line-height: 18px;&quot;&gt;CreatePopulationMessage&lt;/div&gt;" style="html=1;rounded=0;shadow=0;comic=0;labelBackgroundColor=none;strokeWidth=1;fontFamily=Verdana;fontSize=12;align=center;" vertex="1" parent="1">
          <mxGeometry x="-13.75" y="1485" width="195" height="50" as="geometry" />
        </mxCell>
        <mxCell id="CpLRXVsHM8t-solivWQ3-78" style="edgeStyle=orthogonalEdgeStyle;rounded=0;orthogonalLoop=1;jettySize=auto;html=1;exitX=0;exitY=0.3;exitDx=0;exitDy=0;entryX=1;entryY=0.5;entryDx=0;entryDy=0;" edge="1" parent="1" source="CpLRXVsHM8t-solivWQ3-39" target="CpLRXVsHM8t-solivWQ3-37">
          <mxGeometry relative="1" as="geometry">
            <Array as="points">
              <mxPoint x="710" y="1495" />
              <mxPoint x="710" y="1510" />
            </Array>
          </mxGeometry>
        </mxCell>
        <mxCell id="CpLRXVsHM8t-solivWQ3-39" value="KnapsackActor" style="shape=component;align=left;spacingLeft=36;rounded=0;shadow=0;comic=0;labelBackgroundColor=none;strokeWidth=1;fontFamily=Verdana;fontSize=12;html=1;" vertex="1" parent="1">
          <mxGeometry x="695" y="1475" width="140" height="65" as="geometry" />
        </mxCell>
        <mxCell id="CpLRXVsHM8t-solivWQ3-80" style="edgeStyle=orthogonalEdgeStyle;rounded=0;orthogonalLoop=1;jettySize=auto;html=1;exitX=0;exitY=0.7;exitDx=0;exitDy=0;entryX=1;entryY=0.5;entryDx=0;entryDy=0;" edge="1" parent="1" source="CpLRXVsHM8t-solivWQ3-42" target="CpLRXVsHM8t-solivWQ3-43">
          <mxGeometry relative="1" as="geometry">
            <Array as="points">
              <mxPoint x="435" y="1626" />
              <mxPoint x="435" y="1625" />
            </Array>
          </mxGeometry>
        </mxCell>
        <mxCell id="CpLRXVsHM8t-solivWQ3-42" value="&lt;div style=&quot;background-color: rgb(255, 255, 255); font-family: Menlo, Monaco, &amp;quot;Courier New&amp;quot;, monospace; line-height: 18px;&quot;&gt;CreatePopulationActor&lt;/div&gt;" style="shape=component;align=left;spacingLeft=36;rounded=0;shadow=0;comic=0;labelBackgroundColor=none;strokeWidth=1;fontFamily=Verdana;fontSize=12;html=1;" vertex="1" parent="1">
          <mxGeometry x="695" y="1582.5" width="210" height="62.5" as="geometry" />
        </mxCell>
        <mxCell id="CpLRXVsHM8t-solivWQ3-81" style="edgeStyle=orthogonalEdgeStyle;rounded=0;orthogonalLoop=1;jettySize=auto;html=1;exitX=0.5;exitY=1;exitDx=0;exitDy=0;entryX=0;entryY=0.3;entryDx=0;entryDy=0;" edge="1" parent="1" source="CpLRXVsHM8t-solivWQ3-43" target="CpLRXVsHM8t-solivWQ3-45">
          <mxGeometry relative="1" as="geometry">
            <Array as="points">
              <mxPoint x="79" y="1650" />
              <mxPoint x="79" y="1680" />
              <mxPoint x="660" y="1680" />
              <mxPoint x="660" y="1714" />
            </Array>
          </mxGeometry>
        </mxCell>
        <mxCell id="CpLRXVsHM8t-solivWQ3-43" value="&lt;div style=&quot;text-align: start; background-color: rgb(255, 255, 255); font-family: Menlo, Monaco, &amp;quot;Courier New&amp;quot;, monospace; line-height: 18px;&quot;&gt;&lt;div style=&quot;line-height: 18px;&quot;&gt;&lt;div style=&quot;line-height: 18px;&quot;&gt;MeasureFitnessMessage&lt;/div&gt;&lt;/div&gt;&lt;/div&gt;" style="html=1;rounded=0;shadow=0;comic=0;labelBackgroundColor=none;strokeWidth=1;fontFamily=Verdana;fontSize=12;align=center;" vertex="1" parent="1">
          <mxGeometry x="-20" y="1600" width="195" height="50" as="geometry" />
        </mxCell>
        <mxCell id="CpLRXVsHM8t-solivWQ3-82" style="edgeStyle=orthogonalEdgeStyle;rounded=0;orthogonalLoop=1;jettySize=auto;html=1;exitX=0;exitY=0.7;exitDx=0;exitDy=0;entryX=1;entryY=0.75;entryDx=0;entryDy=0;" edge="1" parent="1" source="CpLRXVsHM8t-solivWQ3-45" target="CpLRXVsHM8t-solivWQ3-48">
          <mxGeometry relative="1" as="geometry">
            <mxPoint x="180" y="1737" as="targetPoint" />
            <Array as="points">
              <mxPoint x="695" y="1750" />
              <mxPoint x="187" y="1750" />
            </Array>
          </mxGeometry>
        </mxCell>
        <mxCell id="CpLRXVsHM8t-solivWQ3-45" value="&lt;div style=&quot;background-color: rgb(255, 255, 255); font-family: Menlo, Monaco, &amp;quot;Courier New&amp;quot;, monospace; line-height: 18px;&quot;&gt;MeasureFitnessActor&lt;/div&gt;" style="shape=component;align=left;spacingLeft=36;rounded=0;shadow=0;comic=0;labelBackgroundColor=none;strokeWidth=1;fontFamily=Verdana;fontSize=12;html=1;" vertex="1" parent="1">
          <mxGeometry x="695" y="1693.75" width="190" height="67.5" as="geometry" />
        </mxCell>
        <mxCell id="CpLRXVsHM8t-solivWQ3-83" style="edgeStyle=orthogonalEdgeStyle;rounded=0;orthogonalLoop=1;jettySize=auto;html=1;exitX=0.5;exitY=1;exitDx=0;exitDy=0;entryX=0;entryY=0.3;entryDx=0;entryDy=0;" edge="1" parent="1" source="CpLRXVsHM8t-solivWQ3-48" target="CpLRXVsHM8t-solivWQ3-50">
          <mxGeometry relative="1" as="geometry">
            <Array as="points">
              <mxPoint x="70" y="1790" />
              <mxPoint x="680" y="1790" />
              <mxPoint x="680" y="1826" />
            </Array>
          </mxGeometry>
        </mxCell>
        <mxCell id="CpLRXVsHM8t-solivWQ3-48" value="&lt;div style=&quot;text-align: start; background-color: rgb(255, 255, 255); font-family: Menlo, Monaco, &amp;quot;Courier New&amp;quot;, monospace; line-height: 18px;&quot;&gt;&lt;div style=&quot;line-height: 18px;&quot;&gt;&lt;div style=&quot;line-height: 18px;&quot;&gt;&lt;div style=&quot;line-height: 18px;&quot;&gt;CalculateBestIndividualMessage&lt;/div&gt;&lt;/div&gt;&lt;/div&gt;&lt;/div&gt;" style="html=1;rounded=0;shadow=0;comic=0;labelBackgroundColor=none;strokeWidth=1;fontFamily=Verdana;fontSize=12;align=center;" vertex="1" parent="1">
          <mxGeometry x="-47.5" y="1712.5" width="235" height="48.75" as="geometry" />
        </mxCell>
        <mxCell id="CpLRXVsHM8t-solivWQ3-84" style="edgeStyle=orthogonalEdgeStyle;rounded=0;orthogonalLoop=1;jettySize=auto;html=1;exitX=0;exitY=0.7;exitDx=0;exitDy=0;entryX=1;entryY=0.5;entryDx=0;entryDy=0;" edge="1" parent="1" source="CpLRXVsHM8t-solivWQ3-50" target="CpLRXVsHM8t-solivWQ3-52">
          <mxGeometry relative="1" as="geometry" />
        </mxCell>
        <mxCell id="CpLRXVsHM8t-solivWQ3-50" value="&lt;div style=&quot;background-color: rgb(255, 255, 255); font-family: Menlo, Monaco, &amp;quot;Courier New&amp;quot;, monospace; line-height: 18px;&quot;&gt;&lt;div style=&quot;line-height: 18px;&quot;&gt;BestIndividualActor&lt;/div&gt;&lt;/div&gt;" style="shape=component;align=left;spacingLeft=36;rounded=0;shadow=0;comic=0;labelBackgroundColor=none;strokeWidth=1;fontFamily=Verdana;fontSize=12;html=1;" vertex="1" parent="1">
          <mxGeometry x="715" y="1805.6299999999999" width="190" height="67.5" as="geometry" />
        </mxCell>
        <mxCell id="CpLRXVsHM8t-solivWQ3-85" style="edgeStyle=orthogonalEdgeStyle;rounded=0;orthogonalLoop=1;jettySize=auto;html=1;exitX=0.5;exitY=1;exitDx=0;exitDy=0;entryX=0;entryY=0.3;entryDx=0;entryDy=0;" edge="1" parent="1" source="CpLRXVsHM8t-solivWQ3-52" target="CpLRXVsHM8t-solivWQ3-68">
          <mxGeometry relative="1" as="geometry">
            <Array as="points">
              <mxPoint x="86" y="1910" />
              <mxPoint x="700" y="1910" />
              <mxPoint x="700" y="1942" />
            </Array>
          </mxGeometry>
        </mxCell>
        <mxCell id="CpLRXVsHM8t-solivWQ3-52" value="&lt;div style=&quot;text-align: start; background-color: rgb(255, 255, 255); font-family: Menlo, Monaco, &amp;quot;Courier New&amp;quot;, monospace; line-height: 18px;&quot;&gt;&lt;div style=&quot;line-height: 18px;&quot;&gt;&lt;div style=&quot;line-height: 18px;&quot;&gt;&lt;div style=&quot;line-height: 18px;&quot;&gt;&lt;div style=&quot;line-height: 18px;&quot;&gt;CrossoverMessage&lt;/div&gt;&lt;/div&gt;&lt;/div&gt;&lt;/div&gt;&lt;/div&gt;" style="html=1;rounded=0;shadow=0;comic=0;labelBackgroundColor=none;strokeWidth=1;fontFamily=Verdana;fontSize=12;align=center;" vertex="1" parent="1">
          <mxGeometry x="-8.75" y="1833.13" width="190" height="40" as="geometry" />
        </mxCell>
        <mxCell id="CpLRXVsHM8t-solivWQ3-88" style="edgeStyle=orthogonalEdgeStyle;rounded=0;orthogonalLoop=1;jettySize=auto;html=1;exitX=0;exitY=0.7;exitDx=0;exitDy=0;entryX=1;entryY=0.5;entryDx=0;entryDy=0;" edge="1" parent="1" source="CpLRXVsHM8t-solivWQ3-54" target="CpLRXVsHM8t-solivWQ3-96">
          <mxGeometry relative="1" as="geometry">
            <mxPoint x="220" y="2103.75" as="targetPoint" />
            <Array as="points">
              <mxPoint x="710" y="2102" />
              <mxPoint x="710" y="2118" />
            </Array>
          </mxGeometry>
        </mxCell>
        <mxCell id="CpLRXVsHM8t-solivWQ3-54" value="&lt;div style=&quot;background-color: rgb(255, 255, 255); font-family: Menlo, Monaco, &amp;quot;Courier New&amp;quot;, monospace; line-height: 18px;&quot;&gt;&lt;div style=&quot;line-height: 18px;&quot;&gt;MutationActor&lt;/div&gt;&lt;/div&gt;" style="shape=component;align=left;spacingLeft=36;rounded=0;shadow=0;comic=0;labelBackgroundColor=none;strokeWidth=1;fontFamily=Verdana;fontSize=12;html=1;" vertex="1" parent="1">
          <mxGeometry x="725" y="2060" width="150" height="60" as="geometry" />
        </mxCell>
        <mxCell id="CpLRXVsHM8t-solivWQ3-89" style="edgeStyle=orthogonalEdgeStyle;rounded=0;orthogonalLoop=1;jettySize=auto;html=1;exitX=0.5;exitY=1;exitDx=0;exitDy=0;entryX=1;entryY=0.5;entryDx=0;entryDy=0;" edge="1" parent="1" target="CpLRXVsHM8t-solivWQ3-39">
          <mxGeometry relative="1" as="geometry">
            <mxPoint x="100" y="2137.5" as="sourcePoint" />
            <Array as="points">
              <mxPoint x="94" y="2138" />
              <mxPoint x="94" y="2260" />
              <mxPoint x="1090" y="2260" />
              <mxPoint x="1090" y="1508" />
            </Array>
          </mxGeometry>
        </mxCell>
        <mxCell id="CpLRXVsHM8t-solivWQ3-57" value="&lt;div style=&quot;text-align: start; background-color: rgb(255, 255, 255); font-family: Menlo, Monaco, &amp;quot;Courier New&amp;quot;, monospace; line-height: 18px;&quot;&gt;generation&lt;/div&gt;" style="text;html=1;strokeColor=none;fillColor=none;align=center;verticalAlign=middle;whiteSpace=wrap;rounded=0;" vertex="1" parent="1">
          <mxGeometry x="580.5" y="1540" width="60" height="30" as="geometry" />
        </mxCell>
        <mxCell id="CpLRXVsHM8t-solivWQ3-58" value="&lt;div style=&quot;text-align: start; background-color: rgb(255, 255, 255); font-family: Menlo, Monaco, &amp;quot;Courier New&amp;quot;, monospace; line-height: 18px;&quot;&gt;&lt;div style=&quot;line-height: 18px;&quot;&gt;ind&lt;/div&gt;&lt;/div&gt;" style="text;html=1;strokeColor=none;fillColor=none;align=center;verticalAlign=middle;whiteSpace=wrap;rounded=0;" vertex="1" parent="1">
          <mxGeometry x="600" y="1645" width="60" height="30" as="geometry" />
        </mxCell>
        <mxCell id="CpLRXVsHM8t-solivWQ3-59" value="&lt;div style=&quot;text-align: start; background-color: rgb(255, 255, 255); font-family: Menlo, Monaco, &amp;quot;Courier New&amp;quot;, monospace; line-height: 18px;&quot;&gt;&lt;div style=&quot;line-height: 18px;&quot;&gt;&lt;div style=&quot;line-height: 18px;&quot;&gt;generation&lt;/div&gt;&lt;/div&gt;&lt;/div&gt;" style="text;html=1;strokeColor=none;fillColor=none;align=center;verticalAlign=middle;whiteSpace=wrap;rounded=0;" vertex="1" parent="1">
          <mxGeometry x="585" y="1660.0000000000002" width="60" height="64.37" as="geometry" />
        </mxCell>
        <mxCell id="CpLRXVsHM8t-solivWQ3-60" value="&lt;div style=&quot;text-align: start; background-color: rgb(255, 255, 255); font-family: Menlo, Monaco, &amp;quot;Courier New&amp;quot;, monospace; line-height: 18px;&quot;&gt;&lt;div style=&quot;line-height: 18px;&quot;&gt;&lt;div style=&quot;line-height: 18px;&quot;&gt;population&lt;/div&gt;&lt;/div&gt;&lt;/div&gt;" style="text;html=1;strokeColor=none;fillColor=none;align=center;verticalAlign=middle;whiteSpace=wrap;rounded=0;" vertex="1" parent="1">
          <mxGeometry x="615" y="1761.63" width="60" height="30" as="geometry" />
        </mxCell>
        <mxCell id="CpLRXVsHM8t-solivWQ3-61" value="&lt;div style=&quot;text-align: start; background-color: rgb(255, 255, 255); font-family: Menlo, Monaco, &amp;quot;Courier New&amp;quot;, monospace; line-height: 18px;&quot;&gt;&lt;div style=&quot;line-height: 18px;&quot;&gt;&lt;div style=&quot;line-height: 18px;&quot;&gt;&lt;div style=&quot;line-height: 18px;&quot;&gt;currentGeneration&lt;/div&gt;&lt;/div&gt;&lt;/div&gt;&lt;/div&gt;" style="text;html=1;strokeColor=none;fillColor=none;align=center;verticalAlign=middle;whiteSpace=wrap;rounded=0;" vertex="1" parent="1">
          <mxGeometry x="600" y="1789.69" width="30" height="30.62" as="geometry" />
        </mxCell>
        <mxCell id="CpLRXVsHM8t-solivWQ3-62" value="&lt;div style=&quot;text-align: start; background-color: rgb(255, 255, 255); font-family: Menlo, Monaco, &amp;quot;Courier New&amp;quot;, monospace; line-height: 18px;&quot;&gt;&lt;div style=&quot;line-height: 18px;&quot;&gt;&lt;div style=&quot;line-height: 18px;&quot;&gt;population&lt;/div&gt;&lt;/div&gt;&lt;/div&gt;" style="text;html=1;strokeColor=none;fillColor=none;align=center;verticalAlign=middle;whiteSpace=wrap;rounded=0;" vertex="1" parent="1">
          <mxGeometry x="635" y="1880" width="60" height="30" as="geometry" />
        </mxCell>
        <mxCell id="CpLRXVsHM8t-solivWQ3-64" value="&lt;div style=&quot;text-align: start; background-color: rgb(255, 255, 255); font-family: Menlo, Monaco, &amp;quot;Courier New&amp;quot;, monospace; line-height: 18px;&quot;&gt;&lt;div style=&quot;line-height: 18px;&quot;&gt;&lt;div style=&quot;line-height: 18px;&quot;&gt;population&lt;/div&gt;&lt;/div&gt;&lt;/div&gt;" style="text;html=1;strokeColor=none;fillColor=none;align=center;verticalAlign=middle;whiteSpace=wrap;rounded=0;" vertex="1" parent="1">
          <mxGeometry x="856" y="1475" width="60" height="30" as="geometry" />
        </mxCell>
        <mxCell id="CpLRXVsHM8t-solivWQ3-65" style="edgeStyle=orthogonalEdgeStyle;rounded=0;orthogonalLoop=1;jettySize=auto;html=1;exitX=0.5;exitY=1;exitDx=0;exitDy=0;" edge="1" parent="1" source="CpLRXVsHM8t-solivWQ3-66">
          <mxGeometry relative="1" as="geometry">
            <mxPoint x="70" y="1485" as="targetPoint" />
            <Array as="points">
              <mxPoint x="70" y="1335" />
              <mxPoint x="70" y="1485" />
            </Array>
          </mxGeometry>
        </mxCell>
        <mxCell id="CpLRXVsHM8t-solivWQ3-66" value="App" style="rounded=0;whiteSpace=wrap;html=1;" vertex="1" parent="1">
          <mxGeometry x="10" y="1230" width="120" height="60" as="geometry" />
        </mxCell>
        <mxCell id="CpLRXVsHM8t-solivWQ3-86" style="edgeStyle=orthogonalEdgeStyle;rounded=0;orthogonalLoop=1;jettySize=auto;html=1;exitX=0;exitY=0.7;exitDx=0;exitDy=0;entryX=1;entryY=0.5;entryDx=0;entryDy=0;" edge="1" parent="1" source="CpLRXVsHM8t-solivWQ3-68" target="CpLRXVsHM8t-solivWQ3-69">
          <mxGeometry relative="1" as="geometry" />
        </mxCell>
        <mxCell id="CpLRXVsHM8t-solivWQ3-68" value="&lt;div style=&quot;background-color: rgb(255, 255, 255); font-family: Menlo, Monaco, &amp;quot;Courier New&amp;quot;, monospace; line-height: 18px;&quot;&gt;&lt;div style=&quot;line-height: 18px;&quot;&gt;CrossoverActor&lt;/div&gt;&lt;/div&gt;" style="shape=component;align=left;spacingLeft=36;rounded=0;shadow=0;comic=0;labelBackgroundColor=none;strokeWidth=1;fontFamily=Verdana;fontSize=12;html=1;" vertex="1" parent="1">
          <mxGeometry x="715" y="1924.38" width="150" height="60" as="geometry" />
        </mxCell>
        <mxCell id="CpLRXVsHM8t-solivWQ3-87" style="edgeStyle=orthogonalEdgeStyle;rounded=0;orthogonalLoop=1;jettySize=auto;html=1;exitX=0.5;exitY=1;exitDx=0;exitDy=0;entryX=0;entryY=0.3;entryDx=0;entryDy=0;" edge="1" parent="1" source="CpLRXVsHM8t-solivWQ3-69" target="CpLRXVsHM8t-solivWQ3-54">
          <mxGeometry relative="1" as="geometry">
            <Array as="points">
              <mxPoint x="85" y="2030" />
              <mxPoint x="690" y="2030" />
              <mxPoint x="690" y="2078" />
            </Array>
          </mxGeometry>
        </mxCell>
        <mxCell id="CpLRXVsHM8t-solivWQ3-69" value="&lt;div style=&quot;text-align: start; background-color: rgb(255, 255, 255); font-family: Menlo, Monaco, &amp;quot;Courier New&amp;quot;, monospace; line-height: 18px;&quot;&gt;&lt;div style=&quot;line-height: 18px;&quot;&gt;&lt;div style=&quot;line-height: 18px;&quot;&gt;&lt;div style=&quot;line-height: 18px;&quot;&gt;&lt;div style=&quot;line-height: 18px;&quot;&gt;MutationMessage&lt;/div&gt;&lt;/div&gt;&lt;/div&gt;&lt;/div&gt;&lt;/div&gt;" style="html=1;rounded=0;shadow=0;comic=0;labelBackgroundColor=none;strokeWidth=1;fontFamily=Verdana;fontSize=12;align=center;" vertex="1" parent="1">
          <mxGeometry x="-10" y="1944.38" width="190" height="40" as="geometry" />
        </mxCell>
        <mxCell id="CpLRXVsHM8t-solivWQ3-74" value="messages" style="text;align=center;fontStyle=1;verticalAlign=middle;spacingLeft=3;spacingRight=3;strokeColor=none;rotatable=0;points=[[0,0.5],[1,0.5]];portConstraint=eastwest;html=1;" vertex="1" parent="1">
          <mxGeometry x="-174" y="1430" width="80" height="26" as="geometry" />
        </mxCell>
        <mxCell id="CpLRXVsHM8t-solivWQ3-76" value="actors" style="text;align=center;fontStyle=1;verticalAlign=middle;spacingLeft=3;spacingRight=3;strokeColor=none;rotatable=0;points=[[0,0.5],[1,0.5]];portConstraint=eastwest;html=1;" vertex="1" parent="1">
          <mxGeometry x="500.5" y="1430" width="80" height="26" as="geometry" />
        </mxCell>
        <mxCell id="CpLRXVsHM8t-solivWQ3-93" value="&lt;div style=&quot;text-align: start; background-color: rgb(255, 255, 255); font-family: Menlo, Monaco, &amp;quot;Courier New&amp;quot;, monospace; line-height: 18px;&quot;&gt;&lt;div style=&quot;line-height: 18px;&quot;&gt;&lt;div style=&quot;line-height: 18px;&quot;&gt;best&lt;/div&gt;&lt;/div&gt;&lt;/div&gt;" style="text;html=1;strokeColor=none;fillColor=none;align=center;verticalAlign=middle;whiteSpace=wrap;rounded=0;" vertex="1" parent="1">
          <mxGeometry x="635" y="1910" width="60" height="30" as="geometry" />
        </mxCell>
        <mxCell id="CpLRXVsHM8t-solivWQ3-94" value="&lt;div style=&quot;text-align: start; background-color: rgb(255, 255, 255); font-family: Menlo, Monaco, &amp;quot;Courier New&amp;quot;, monospace; line-height: 18px;&quot;&gt;&lt;div style=&quot;line-height: 18px;&quot;&gt;ind&lt;/div&gt;&lt;/div&gt;" style="text;html=1;strokeColor=none;fillColor=none;align=center;verticalAlign=middle;whiteSpace=wrap;rounded=0;" vertex="1" parent="1">
          <mxGeometry x="635" y="2000" width="60" height="30" as="geometry" />
        </mxCell>
        <mxCell id="CpLRXVsHM8t-solivWQ3-95" value="&lt;div style=&quot;text-align: start; background-color: rgb(255, 255, 255); font-family: Menlo, Monaco, &amp;quot;Courier New&amp;quot;, monospace; line-height: 18px;&quot;&gt;&lt;div style=&quot;line-height: 18px;&quot;&gt;&lt;div style=&quot;line-height: 18px;&quot;&gt;best&lt;/div&gt;&lt;/div&gt;&lt;/div&gt;" style="text;html=1;strokeColor=none;fillColor=none;align=center;verticalAlign=middle;whiteSpace=wrap;rounded=0;" vertex="1" parent="1">
          <mxGeometry x="635" y="2030" width="60" height="30" as="geometry" />
        </mxCell>
        <mxCell id="CpLRXVsHM8t-solivWQ3-96" value="&lt;div style=&quot;text-align: start; background-color: rgb(255, 255, 255); font-family: Menlo, Monaco, &amp;quot;Courier New&amp;quot;, monospace; line-height: 18px;&quot;&gt;&lt;div style=&quot;line-height: 18px;&quot;&gt;&lt;div style=&quot;line-height: 18px;&quot;&gt;&lt;div style=&quot;line-height: 18px;&quot;&gt;&lt;div style=&quot;line-height: 18px;&quot;&gt;GenerationCompletedMessage&lt;br&gt;&lt;/div&gt;&lt;/div&gt;&lt;/div&gt;&lt;/div&gt;&lt;/div&gt;" style="html=1;rounded=0;shadow=0;comic=0;labelBackgroundColor=none;strokeWidth=1;fontFamily=Verdana;fontSize=12;align=center;" vertex="1" parent="1">
          <mxGeometry y="2090" width="221.25" height="55" as="geometry" />
        </mxCell>
      </root>
    </mxGraphModel>
  </diagram>
</mxfile>
